<?xml version="1.0" encoding="UTF-8" standalone="no"?>
<!-- Created with Inkscape (http://www.inkscape.org/) -->

<svg
   width="96.832596mm"
   height="101.70639mm"
   viewBox="0 0 96.832596 101.70639"
   version="1.1"
   id="svg1"
   xmlns="http://www.w3.org/2000/svg"
   xmlns:svg="http://www.w3.org/2000/svg">
  <defs
     id="defs1" />
  <g
     id="g17"
     style="stroke:#e0e1dd;stroke-width:12;stroke-dasharray:none;stroke-opacity:1"
     transform="rotate(-1.5321482,-2878.3383,1750.5637)">
    <path
       style="fill:none;stroke:#e0e1dd;stroke-width:12;stroke-linecap:round;stroke-dasharray:none;stroke-opacity:1"
       id="path1"
       d="m 134.46259,123.59456 a 42.994793,43.098145 0 0 1 -20.47001,45.01652 42.994793,43.098145 0 0 1 -49.197838,-3.93034" />
    <g
       id="g16"
       transform="rotate(-87.945745,83.790506,141.24903)"
       style="stroke:#e0e1dd;stroke-width:12;stroke-dasharray:none;stroke-opacity:1">
      <path
         style="fill:#a02c2c;stroke:#e0e1dd;stroke-width:12;stroke-linecap:round;stroke-dasharray:none;stroke-opacity:1"
         d="m 51.10558,115.90546 17.756904,2.39409"
         id="path15" />
      <path
         style="fill:#a02c2c;stroke:#e0e1dd;stroke-width:12;stroke-linecap:round;stroke-dasharray:none;stroke-opacity:1"
         d="m 66.565975,136.06934 2.296509,-17.76979"
         id="path23" />
    </g>
  </g>
  <g
     id="g33"
     style="stroke:#e0e1dd;stroke-width:12;stroke-dasharray:none;stroke-opacity:1"
     transform="rotate(178.46785,71.143656,89.987739)">
    <path
       style="fill:none;stroke:#e0e1dd;stroke-width:12;stroke-linecap:round;stroke-dasharray:none;stroke-opacity:1"
       id="path30"
       d="m 134.46259,123.59456 a 42.994793,43.098145 0 0 1 -20.47001,45.01652 42.994793,43.098145 0 0 1 -49.197838,-3.93034" />
    <g
       id="g32"
       transform="rotate(-87.945745,83.790506,141.24903)"
       style="stroke:#e0e1dd;stroke-width:12;stroke-dasharray:none;stroke-opacity:1">
      <path
         style="fill:#a02c2c;stroke:#e0e1dd;stroke-width:12;stroke-linecap:round;stroke-dasharray:none;stroke-opacity:1"
         d="m 51.10558,115.90546 17.756904,2.39409"
         id="path31" />
      <path
         style="fill:#a02c2c;stroke:#e0e1dd;stroke-width:12;stroke-linecap:round;stroke-dasharray:none;stroke-opacity:1"
         d="m 66.565975,136.06934 2.296509,-17.76979"
         id="path32" />
    </g>
  </g>
</svg>
